<svg xmlns="http://www.w3.org/2000/svg" width="57.907" height="64.218" viewBox="0 0 57.907 64.218">
  <g id="empty-cart-svgrepo-com" transform="translate(-11.376)">
    <path id="Path_2591" data-name="Path 2591" d="M104.886,115.637a2.081,2.081,0,0,0,2.067,1.867,2.112,2.112,0,0,0,.216-.011,2.08,2.08,0,0,0,1.855-2.283l-.959-9.283a2.08,2.08,0,1,0-4.138.428Z" transform="translate(-66.872 -75.197)" fill="#bebebe"/>
    <path id="Path_2592" data-name="Path 2592" d="M149.487,117.492a2.113,2.113,0,0,0,.216.011,2.081,2.081,0,0,0,2.067-1.867l.959-9.283a2.08,2.08,0,0,0-4.139-.428l-.959,9.283A2.08,2.08,0,0,0,149.487,117.492Z" transform="translate(-98.455 -75.197)" fill="#bebebe"/>
    <path id="Path_2593" data-name="Path 2593" d="M79.5,185.088a6.44,6.44,0,1,0,6.439,6.439A6.446,6.446,0,0,0,79.5,185.088Zm0,8.719a2.279,2.279,0,1,1,2.279-2.28A2.282,2.282,0,0,1,79.5,193.807Z" transform="translate(-44.577 -133.75)" fill="#bebebe"/>
    <path id="Path_2594" data-name="Path 2594" d="M156.942,185.088a6.44,6.44,0,1,0,6.44,6.439A6.447,6.447,0,0,0,156.942,185.088Zm0,8.719a2.279,2.279,0,1,1,2.279-2.28A2.282,2.282,0,0,1,156.942,193.807Z" transform="translate(-100.538 -133.75)" fill="#bebebe"/>
    <path id="Path_2595" data-name="Path 2595" d="M68.848,55.475a2.08,2.08,0,0,0-1.646-.808H25.737L24,47.971a2.081,2.081,0,0,0-2.013-1.557H13.456a2.08,2.08,0,1,0,0,4.161h6.918L22.1,57.216c.009.037.018.074.029.11l6.423,24.7a2.081,2.081,0,0,0,2.013,1.557h30.2a2.081,2.081,0,0,0,2.013-1.557L69.216,57.27A2.081,2.081,0,0,0,68.848,55.475ZM59.156,79.422H32.175L26.819,58.827H64.512Z" transform="translate(0 -33.54)" fill="#bebebe"/>
    <path id="Path_2596" data-name="Path 2596" d="M86.923,26.561a2.08,2.08,0,0,0,2.941-2.943l-6.542-6.539a2.08,2.08,0,1,0-2.941,2.943Z" transform="translate(-49.424 -11.901)" fill="#bebebe"/>
    <path id="Path_2597" data-name="Path 2597" d="M153.755,27.171a2.074,2.074,0,0,0,1.472-.61l6.533-6.538a2.08,2.08,0,0,0-2.943-2.94l-6.533,6.538a2.08,2.08,0,0,0,1.471,3.55Z" transform="translate(-101.384 -11.904)" fill="#bebebe"/>
    <path id="Path_2598" data-name="Path 2598" d="M129.588,13.4h0a2.08,2.08,0,0,0,2.08-2.08l0-9.239A2.08,2.08,0,0,0,129.591,0h0a2.08,2.08,0,0,0-2.081,2.08l0,9.239A2.08,2.08,0,0,0,129.588,13.4Z" transform="translate(-83.921)" fill="#bebebe"/>
  </g>
</svg>
